<svg width="66" height="66" viewBox="0 0 66 66" fill="none" xmlns="http://www.w3.org/2000/svg">
<g filter="url(#filter0_d_1209_3223)">
<g clip-path="url(#clip0_1209_3223)">
<rect width="50" height="50" transform="translate(8 6)" fill="#A29061"/>
<path d="M33.0003 14.3333C23.6118 14.3333 16.334 21.2106 16.334 30.4996C16.334 35.3587 18.3252 39.5569 21.568 42.4577C21.7033 42.5773 21.8127 42.7233 21.8897 42.8866C21.9667 43.0499 22.0097 43.2272 22.016 43.4077L22.1068 46.3743C22.1135 46.5926 22.1737 46.8059 22.2822 46.9954C22.3907 47.185 22.544 47.345 22.7288 47.4614C22.9136 47.5778 23.1242 47.647 23.342 47.663C23.5598 47.679 23.7782 47.6412 23.978 47.553L27.2858 46.0947C27.5662 45.9712 27.8805 45.9482 28.1758 46.0297C29.7482 46.457 31.3709 46.671 33.0003 46.6659C42.3889 46.6659 49.6666 39.7911 49.6666 30.4996C49.6666 21.2081 42.3889 14.3333 33.0003 14.3333ZM43.0084 26.7717L38.1127 34.5412C37.9285 34.8333 37.6858 35.0842 37.3999 35.2778C37.1139 35.4715 36.7909 35.6038 36.4513 35.6665C36.1117 35.7291 35.7627 35.7207 35.4265 35.6418C35.0903 35.5628 34.7741 35.4151 34.4978 35.2078L30.6041 32.2871C30.4302 32.1567 30.2185 32.0865 30.0012 32.0872C29.7839 32.0879 29.5726 32.1594 29.3995 32.2908L24.1405 36.2803C23.4388 36.8128 22.5226 35.9728 22.9922 35.2274L27.8879 27.4601C28.0721 27.1679 28.3148 26.9171 28.6008 26.7234C28.8867 26.5297 29.2097 26.3974 29.5493 26.3348C29.889 26.2721 30.2379 26.2805 30.5741 26.3595C30.9103 26.4384 31.2266 26.5862 31.5028 26.7934L35.3969 29.7138C35.5708 29.8441 35.7825 29.9143 35.9998 29.9136C36.2172 29.9129 36.4284 29.8415 36.6015 29.71L41.8601 25.7193C42.5622 25.1864 43.4784 26.0263 43.0084 26.7717Z" fill="white"/>
</g>
</g>
<defs>
<filter id="filter0_d_1209_3223" x="0" y="0" width="66" height="66" filterUnits="userSpaceOnUse" color-interpolation-filters="sRGB">
<feFlood flood-opacity="0" result="BackgroundImageFix"/>
<feColorMatrix in="SourceAlpha" type="matrix" values="0 0 0 0 0 0 0 0 0 0 0 0 0 0 0 0 0 0 127 0" result="hardAlpha"/>
<feOffset dy="2"/>
<feGaussianBlur stdDeviation="4"/>
<feComposite in2="hardAlpha" operator="out"/>
<feColorMatrix type="matrix" values="0 0 0 0 0 0 0 0 0 0 0 0 0 0 0 0 0 0 0.25 0"/>
<feBlend mode="normal" in2="BackgroundImageFix" result="effect1_dropShadow_1209_3223"/>
<feBlend mode="normal" in="SourceGraphic" in2="effect1_dropShadow_1209_3223" result="shape"/>
</filter>
<clipPath id="clip0_1209_3223">
<rect x="8" y="6" width="50" height="50" rx="25" fill="white"/>
</clipPath>
</defs>
</svg>
