<svg width="50" height="50" viewBox="0 0 50 50" fill="none" xmlns="http://www.w3.org/2000/svg">
<circle cx="25" cy="25" r="25" fill="#A29061"/>
<path d="M23.5013 23.3952L25.28 21.7522C25.7667 21.3024 26.109 20.7164 26.2628 20.0693C26.4167 19.4222 26.3752 18.7436 26.1436 18.1205L25.3836 16.0767C25.0999 15.3142 24.5383 14.6893 23.8131 14.3294C23.0879 13.9695 22.2537 13.9017 21.4806 14.1399C18.6361 15.0165 16.4497 17.6797 17.1227 20.843C17.5652 22.9235 18.4115 25.535 20.0169 28.3143C21.3622 30.655 23.0545 32.775 25.0354 34.6008C27.4142 36.7815 30.8124 36.2363 32.9988 34.1834C33.5849 33.6329 33.9405 32.8781 33.9932 32.0726C34.0459 31.2672 33.7916 30.4719 33.2823 29.8487L31.889 28.1439C31.4691 27.6298 30.9062 27.2539 30.2727 27.0644C29.6391 26.8749 28.9638 26.8804 28.3333 27.0803L26.0325 27.8108C25.9438 27.719 25.8419 27.6096 25.7292 27.4836C25.2561 26.9564 24.8376 26.3821 24.4801 25.7696C24.1323 25.1513 23.848 24.499 23.6314 23.8227C23.5851 23.6811 23.5417 23.5386 23.5013 23.3952Z" fill="white"/>
</svg>
