<svg width="50" height="50" viewBox="0 0 50 50" fill="none" xmlns="http://www.w3.org/2000/svg">
<circle cx="25" cy="25" r="25" fill="#A29061"/>
<path d="M25 38.1289C32.7315 38.1289 39 31.832 39 24.0644C39 16.2968 32.7315 10 25 10C17.2685 10 11 16.2968 11 24.0644C11 27.6006 12.3003 30.8355 14.4475 33.3068C14.2778 35.3481 13.7178 37.5864 13.0982 39.2661C12.96 39.6398 13.2278 40.0577 13.576 39.9934C17.524 39.25 19.8707 38.1088 20.891 37.514C22.2313 37.9245 23.6128 38.1312 25 38.1289Z" fill="white"/>
<path fill-rule="evenodd" clip-rule="evenodd" d="M25.4083 22.0636V21.6899H26.5306V26.9452H25.8885C25.6242 26.9452 25.4097 26.7322 25.4083 26.469C25.4081 26.4692 25.4084 26.4688 25.4083 26.469C24.9562 26.7987 24.397 26.9949 23.7935 26.9949C22.282 26.9949 21.0565 25.7731 21.0565 24.2663C21.0565 22.7595 22.282 21.5379 23.7935 21.5379C24.397 21.5379 24.9562 21.7339 25.4083 22.0636C25.4084 22.0638 25.4081 22.0634 25.4083 22.0636ZM20.7657 20V20.1703C20.7657 20.4882 20.7231 20.7475 20.5161 21.0519L20.4911 21.0804C20.4459 21.1316 20.3398 21.2517 20.2893 21.3167L16.6867 25.8275H20.7657V26.4661C20.7657 26.7307 20.5504 26.9452 20.2852 26.9452H15V26.6441C15 26.2752 15.0918 26.1108 15.2079 25.9394L19.0485 21.1974H15.1601V20H20.7657ZM27.8917 26.9452C27.671 26.9452 27.4915 26.7662 27.4915 26.5464V20H28.6927V26.9452H27.8917ZM32.2445 21.5049C33.7664 21.5049 35 22.7358 35 24.2517C35 25.7691 33.7664 27 32.2445 27C30.7224 27 29.489 25.7691 29.489 24.2517C29.489 22.7358 30.7224 21.5049 32.2445 21.5049ZM23.7935 25.8716C24.683 25.8716 25.4038 25.1531 25.4038 24.2663C25.4038 23.381 24.683 22.6622 23.7935 22.6622C22.9041 22.6622 22.1831 23.381 22.1831 24.2663C22.1831 25.1531 22.9041 25.8716 23.7935 25.8716ZM32.2445 25.8689C33.1392 25.8689 33.8653 25.1451 33.8653 24.2517C33.8653 23.3599 33.1392 22.636 32.2445 22.636C31.3483 22.636 30.6235 23.3599 30.6235 24.2517C30.6235 25.1451 31.3483 25.8689 32.2445 25.8689Z" fill="#A29061"/>
</svg>
