<svg width="22" height="21" viewBox="0 0 22 21" fill="none" xmlns="http://www.w3.org/2000/svg">
<path fill-rule="evenodd" clip-rule="evenodd" d="M18.5249 1.67268C17.7037 0.643235 16.5301 0 15.2308 0C12.7402 0 10.7189 2.37378 10.7189 5.3013C10.7189 5.71712 10.7577 6.12015 10.8352 6.50838C7.08408 6.28701 3.75879 4.17901 1.53136 0.967543C1.1425 1.75342 0.92046 2.66512 0.92046 3.63603C0.92046 5.47422 1.71698 7.09711 2.92879 8.04784C2.18984 8.02227 1.49259 7.78139 0.882867 7.38711V7.4517C0.882867 10.0213 2.4389 12.1649 4.50538 12.6501C4.12709 12.7745 3.72766 12.8371 3.31589 12.8371C3.02513 12.8371 2.74141 12.8048 2.4665 12.7429C3.04098 14.8482 4.70686 16.3816 6.6823 16.4227C5.13801 17.8451 3.19077 18.6928 1.07671 18.6928C0.71252 18.6928 0.352442 18.6686 0 18.6202C1.99717 20.1219 4.37086 21 6.91902 21C15.222 21 19.7608 12.9232 19.7608 5.91695C19.7608 5.68617 19.7573 5.45606 19.7497 5.22998C20.6314 4.48246 21.3973 3.54923 22 2.48614C21.1917 2.90734 20.3212 3.19262 19.4084 3.32046C20.3406 2.66512 21.056 1.62625 21.3932 0.388229C20.5203 0.99513 19.5558 1.43651 18.5249 1.67268Z" fill="#808080"/>
</svg>
